<?xml version="1.0" encoding="UTF-8" standalone="no"?>
<!DOCTYPE svg PUBLIC "-//W3C//DTD SVG 1.1//EN"
 "http://www.w3.org/Graphics/SVG/1.1/DTD/svg11.dtd">
<!-- Generated by graphviz version 2.43.0 (0)
 -->
<!-- Title: ER Pages: 1 -->
<svg width="1414pt" height="1675pt"
 viewBox="0.00 0.00 1414.10 1674.60" xmlns="http://www.w3.org/2000/svg" xmlns:xlink="http://www.w3.org/1999/xlink">
<g id="graph0" class="graph" transform="scale(1 1) rotate(0) translate(28.8 1645.8)">
<title>ER</title>
<polygon fill="white" stroke="transparent" points="-28.8,28.8 -28.8,-1645.8 1385.3,-1645.8 1385.3,28.8 -28.8,28.8"/>
<text text-anchor="start" x="379.25" y="-1596.4" font-family="DejaVu Sans" font-size="22.00">Modelo Entidad&#45;Relación — NimbusVault (PostgreSQL)</text>
<text text-anchor="start" x="405.25" y="-1583.2" font-family="DejaVu Sans" font-size="11.00" fill="#64748b">Tablas con borde continuo: ya existen (migración 0001). Borde punteado: se crean en el Avance 2.</text>
<text text-anchor="start" x="674.75" y="-1563.4" font-family="DejaVu Sans" font-size="22.00"> </text>
<!-- roles -->
<g id="node1" class="node">
<title>roles</title>
<polygon fill="#f5f2ff" stroke="transparent" points="601.5,-1365.5 601.5,-1445.5 761.5,-1445.5 761.5,-1365.5 601.5,-1365.5"/>
<polygon fill="#7c4dff" stroke="transparent" points="602.5,-1423.5 602.5,-1444.5 760.5,-1444.5 760.5,-1423.5 602.5,-1423.5"/>
<text text-anchor="start" x="664.5" y="-1431.9" font-family="DejaVu Sans" font-weight="bold" font-size="12.00" fill="white">roles</text>
<text text-anchor="start" x="606.5" y="-1412.8" font-family="DejaVu Sans" font-weight="bold" font-size="9.00" fill="#b91c1c">PK</text>
<text text-anchor="start" x="632.5" y="-1411.5" font-family="DejaVu Sans" font-size="10.00">id_rol</text>
<text text-anchor="start" x="696.5" y="-1412.1" font-family="DejaVu Sans" font-size="8.00" fill="#475569">SMALLINT</text>
<text text-anchor="start" x="606.5" y="-1393.8" font-family="DejaVu Sans" font-weight="bold" font-size="9.00" fill="#7c3aed">UQ</text>
<text text-anchor="start" x="632.5" y="-1392.5" font-family="DejaVu Sans" font-size="10.00">nombre</text>
<text text-anchor="start" x="696.5" y="-1393.1" font-family="DejaVu Sans" font-size="8.00" fill="#475569">VARCHAR(30)</text>
<text text-anchor="start" x="632.5" y="-1373.5" font-family="DejaVu Sans" font-size="10.00">descripcion</text>
<text text-anchor="start" x="696.5" y="-1374.1" font-family="DejaVu Sans" font-size="8.00" fill="#475569">VARCHAR(200)</text>
<polygon fill="none" stroke="#7c4dff" points="601.5,-1365.5 601.5,-1445.5 761.5,-1445.5 761.5,-1365.5 601.5,-1365.5"/>
</g>
<!-- usuarios -->
<g id="node2" class="node">
<title>usuarios</title>
<polygon fill="#eef3fc" stroke="transparent" points="554.5,-926 554.5,-1177 808.5,-1177 808.5,-926 554.5,-926"/>
<polygon fill="#1a5fd6" stroke="transparent" points="555.5,-1154.5 555.5,-1175.5 807.5,-1175.5 807.5,-1154.5 555.5,-1154.5"/>
<text text-anchor="start" x="652.5" y="-1162.9" font-family="DejaVu Sans" font-weight="bold" font-size="12.00" fill="white">usuarios</text>
<text text-anchor="start" x="559.5" y="-1143.8" font-family="DejaVu Sans" font-weight="bold" font-size="9.00" fill="#b91c1c">PK</text>
<text text-anchor="start" x="585.5" y="-1142.5" font-family="DejaVu Sans" font-size="10.00">id_usuario</text>
<text text-anchor="start" x="743.5" y="-1143.1" font-family="DejaVu Sans" font-size="8.00" fill="#475569">UUID</text>
<text text-anchor="start" x="559.5" y="-1124.8" font-family="DejaVu Sans" font-weight="bold" font-size="9.00" fill="#1d4ed8">FK</text>
<text text-anchor="start" x="585.5" y="-1123.5" font-family="DejaVu Sans" font-size="10.00">id_rol</text>
<text text-anchor="start" x="743.5" y="-1124.1" font-family="DejaVu Sans" font-size="8.00" fill="#475569">SMALLINT</text>
<text text-anchor="start" x="585.5" y="-1104.5" font-family="DejaVu Sans" font-size="10.00">nombre</text>
<text text-anchor="start" x="743.5" y="-1105.1" font-family="DejaVu Sans" font-size="8.00" fill="#475569">VARCHAR(120)</text>
<text text-anchor="start" x="559.5" y="-1086.8" font-family="DejaVu Sans" font-weight="bold" font-size="9.00" fill="#7c3aed">UQ</text>
<text text-anchor="start" x="585.5" y="-1085.5" font-family="DejaVu Sans" font-size="10.00">correo</text>
<text text-anchor="start" x="743.5" y="-1086.1" font-family="DejaVu Sans" font-size="8.00" fill="#475569">VARCHAR(255)</text>
<text text-anchor="start" x="585.5" y="-1066.5" font-family="DejaVu Sans" font-size="10.00">password_hash</text>
<text text-anchor="start" x="743.5" y="-1067.1" font-family="DejaVu Sans" font-size="8.00" fill="#475569">VARCHAR(100)</text>
<text text-anchor="start" x="585.5" y="-1047.5" font-family="DejaVu Sans" font-size="10.00">estado</text>
<text text-anchor="start" x="743.5" y="-1048.1" font-family="DejaVu Sans" font-size="8.00" fill="#475569">VARCHAR(20)</text>
<text text-anchor="start" x="585.5" y="-1028.5" font-family="DejaVu Sans" font-size="10.00">correo_verificado_en</text>
<text text-anchor="start" x="743.5" y="-1029.1" font-family="DejaVu Sans" font-size="8.00" fill="#475569">TIMESTAMPTZ</text>
<text text-anchor="start" x="585.5" y="-1009.5" font-family="DejaVu Sans" font-size="10.00">acepto_terminos_en</text>
<text text-anchor="start" x="743.5" y="-1010.1" font-family="DejaVu Sans" font-size="8.00" fill="#475569">TIMESTAMPTZ</text>
<text text-anchor="start" x="585.5" y="-990.5" font-family="DejaVu Sans" font-size="10.00">ultimo_acceso</text>
<text text-anchor="start" x="743.5" y="-991.1" font-family="DejaVu Sans" font-size="8.00" fill="#475569">TIMESTAMPTZ</text>
<text text-anchor="start" x="585.5" y="-971.5" font-family="DejaVu Sans" font-size="10.00">almacenamiento_usado_bytes</text>
<text text-anchor="start" x="743.5" y="-972.1" font-family="DejaVu Sans" font-size="8.00" fill="#475569">BIGINT</text>
<text text-anchor="start" x="585.5" y="-952.5" font-family="DejaVu Sans" font-size="10.00">creado_en</text>
<text text-anchor="start" x="743.5" y="-953.1" font-family="DejaVu Sans" font-size="8.00" fill="#475569">TIMESTAMPTZ</text>
<text text-anchor="start" x="585.5" y="-933.5" font-family="DejaVu Sans" font-size="10.00">actualizado_en</text>
<text text-anchor="start" x="743.5" y="-934.1" font-family="DejaVu Sans" font-size="8.00" fill="#475569">TIMESTAMPTZ</text>
<polygon fill="none" stroke="#1a5fd6" points="554.5,-926 554.5,-1177 808.5,-1177 808.5,-926 554.5,-926"/>
</g>
<!-- roles&#45;&gt;usuarios -->
<g id="edge1" class="edge">
<title>roles&#45;&gt;usuarios</title>
<path fill="none" stroke="#475569" stroke-width="1.2" d="M681.5,-1351.23C681.5,-1310.84 681.5,-1253.26 681.5,-1199.42"/>
<polygon fill="#475569" stroke="#475569" stroke-width="1.2" points="686.5,-1360.34 676.5,-1360.34 676.5,-1358.34 686.5,-1358.34 686.5,-1360.34"/>
<polyline fill="none" stroke="#475569" stroke-width="1.2" points="681.5,-1361.34 681.5,-1356.34 "/>
<polygon fill="#475569" stroke="#475569" stroke-width="1.2" points="686.5,-1355.34 676.5,-1355.34 676.5,-1353.34 686.5,-1353.34 686.5,-1355.34"/>
<polyline fill="none" stroke="#475569" stroke-width="1.2" points="681.5,-1356.34 681.5,-1351.34 "/>
<polygon fill="#475569" stroke="#475569" stroke-width="1.2" points="681.5,-1191.34 686,-1181.34 681.5,-1186.34 681.5,-1181.34 681.5,-1181.34 681.5,-1181.34 681.5,-1186.34 677,-1181.34 681.5,-1191.34 681.5,-1191.34"/>
<ellipse fill="none" stroke="#475569" stroke-width="1.2" cx="681.5" cy="-1195.34" rx="4" ry="4"/>
<text text-anchor="middle" x="696" y="-1216.8" font-family="DejaVu Sans" font-size="9.00" fill="#334155"> &#160;tiene</text>
</g>
<!-- tokens_usuario -->
<g id="node3" class="node">
<title>tokens_usuario</title>
<polygon fill="#faf1ed" stroke="transparent" points="932,-638.5 932,-794.5 1089,-794.5 1089,-638.5 932,-638.5"/>
<polygon fill="#c2410c" stroke="transparent" points="933.5,-772.5 933.5,-793.5 1088.5,-793.5 1088.5,-772.5 933.5,-772.5"/>
<text text-anchor="start" x="959.5" y="-780.9" font-family="DejaVu Sans" font-weight="bold" font-size="12.00" fill="white">tokens_usuario</text>
<text text-anchor="start" x="937.5" y="-761.8" font-family="DejaVu Sans" font-weight="bold" font-size="9.00" fill="#b91c1c">PK</text>
<text text-anchor="start" x="963.5" y="-760.5" font-family="DejaVu Sans" font-size="10.00">id_token</text>
<text text-anchor="start" x="1027.5" y="-761.1" font-family="DejaVu Sans" font-size="8.00" fill="#475569">UUID</text>
<text text-anchor="start" x="937.5" y="-742.8" font-family="DejaVu Sans" font-weight="bold" font-size="9.00" fill="#1d4ed8">FK</text>
<text text-anchor="start" x="963.5" y="-741.5" font-family="DejaVu Sans" font-size="10.00">id_usuario</text>
<text text-anchor="start" x="1027.5" y="-742.1" font-family="DejaVu Sans" font-size="8.00" fill="#475569">UUID</text>
<text text-anchor="start" x="963.5" y="-722.5" font-family="DejaVu Sans" font-size="10.00">tipo</text>
<text text-anchor="start" x="1027.5" y="-723.1" font-family="DejaVu Sans" font-size="8.00" fill="#475569">VARCHAR(20)</text>
<text text-anchor="start" x="937.5" y="-704.8" font-family="DejaVu Sans" font-weight="bold" font-size="9.00" fill="#7c3aed">UQ</text>
<text text-anchor="start" x="963.5" y="-703.5" font-family="DejaVu Sans" font-size="10.00">token_hash</text>
<text text-anchor="start" x="1027.5" y="-704.1" font-family="DejaVu Sans" font-size="8.00" fill="#475569">VARCHAR(64)</text>
<text text-anchor="start" x="963.5" y="-684.5" font-family="DejaVu Sans" font-size="10.00">expira_en</text>
<text text-anchor="start" x="1027.5" y="-685.1" font-family="DejaVu Sans" font-size="8.00" fill="#475569">TIMESTAMPTZ</text>
<text text-anchor="start" x="963.5" y="-665.5" font-family="DejaVu Sans" font-size="10.00">usado_en</text>
<text text-anchor="start" x="1027.5" y="-666.1" font-family="DejaVu Sans" font-size="8.00" fill="#475569">TIMESTAMPTZ</text>
<text text-anchor="start" x="963.5" y="-646.5" font-family="DejaVu Sans" font-size="10.00">creado_en</text>
<text text-anchor="start" x="1027.5" y="-647.1" font-family="DejaVu Sans" font-size="8.00" fill="#475569">TIMESTAMPTZ</text>
<polygon fill="none" stroke="#c2410c" points="932,-638.5 932,-794.5 1089,-794.5 1089,-638.5 932,-638.5"/>
</g>
<!-- usuarios&#45;&gt;tokens_usuario -->
<g id="edge2" class="edge">
<title>usuarios&#45;&gt;tokens_usuario</title>
<path fill="none" stroke="#475569" stroke-width="1.2" d="M824.21,-923.35C850.8,-898.29 877.94,-871.76 902.5,-846 912.58,-835.43 922.85,-824.07 932.85,-812.64"/>
<polygon fill="#475569" stroke="#475569" stroke-width="1.2" points="820.87,-933.34 814.03,-926.05 815.48,-924.68 822.33,-931.97 820.87,-933.34"/>
<polyline fill="none" stroke="#475569" stroke-width="1.2" points="816.72,-930.38 820.37,-926.96 "/>
<polygon fill="#475569" stroke="#475569" stroke-width="1.2" points="824.52,-929.92 817.67,-922.63 819.13,-921.26 825.97,-928.55 824.52,-929.92"/>
<polyline fill="none" stroke="#475569" stroke-width="1.2" points="820.37,-926.96 824.01,-923.54 "/>
<polygon fill="#475569" stroke="#475569" stroke-width="1.2" points="938.35,-806.28 948.3,-801.65 941.62,-802.49 944.89,-798.71 944.89,-798.71 944.89,-798.71 941.62,-802.49 941.49,-795.77 938.35,-806.28 938.35,-806.28"/>
<ellipse fill="none" stroke="#475569" stroke-width="1.2" cx="935.74" cy="-809.3" rx="4" ry="4"/>
<text text-anchor="middle" x="884.5" y="-881.8" font-family="DejaVu Sans" font-size="9.00" fill="#334155"> &#160;recibe</text>
</g>
<!-- sesiones -->
<g id="node4" class="node">
<title>sesiones</title>
<polygon fill="#eef5f7" stroke="transparent" points="1148.5,-629 1148.5,-804 1348.5,-804 1348.5,-629 1148.5,-629"/>
<polygon fill="#0e7490" stroke="transparent" points="1149.5,-781.5 1149.5,-802.5 1347.5,-802.5 1347.5,-781.5 1149.5,-781.5"/>
<text text-anchor="start" x="1218.5" y="-789.9" font-family="DejaVu Sans" font-weight="bold" font-size="12.00" fill="white">sesiones</text>
<text text-anchor="start" x="1153.5" y="-770.8" font-family="DejaVu Sans" font-weight="bold" font-size="9.00" fill="#b91c1c">PK</text>
<text text-anchor="start" x="1179.5" y="-769.5" font-family="DejaVu Sans" font-size="10.00">id_sesion</text>
<text text-anchor="start" x="1283.5" y="-770.1" font-family="DejaVu Sans" font-size="8.00" fill="#475569">UUID</text>
<text text-anchor="start" x="1153.5" y="-751.8" font-family="DejaVu Sans" font-weight="bold" font-size="9.00" fill="#1d4ed8">FK</text>
<text text-anchor="start" x="1179.5" y="-750.5" font-family="DejaVu Sans" font-size="10.00">id_usuario</text>
<text text-anchor="start" x="1283.5" y="-751.1" font-family="DejaVu Sans" font-size="8.00" fill="#475569">UUID</text>
<text text-anchor="start" x="1153.5" y="-732.8" font-family="DejaVu Sans" font-weight="bold" font-size="9.00" fill="#7c3aed">UQ</text>
<text text-anchor="start" x="1179.5" y="-731.5" font-family="DejaVu Sans" font-size="10.00">refresh_token_hash</text>
<text text-anchor="start" x="1283.5" y="-732.1" font-family="DejaVu Sans" font-size="8.00" fill="#475569">VARCHAR(64)</text>
<text text-anchor="start" x="1179.5" y="-712.5" font-family="DejaVu Sans" font-size="10.00">ip</text>
<text text-anchor="start" x="1283.5" y="-713.1" font-family="DejaVu Sans" font-size="8.00" fill="#475569">VARCHAR(45)</text>
<text text-anchor="start" x="1179.5" y="-693.5" font-family="DejaVu Sans" font-size="10.00">user_agent</text>
<text text-anchor="start" x="1283.5" y="-694.1" font-family="DejaVu Sans" font-size="8.00" fill="#475569">VARCHAR(300)</text>
<text text-anchor="start" x="1179.5" y="-674.5" font-family="DejaVu Sans" font-size="10.00">creado_en</text>
<text text-anchor="start" x="1283.5" y="-675.1" font-family="DejaVu Sans" font-size="8.00" fill="#475569">TIMESTAMPTZ</text>
<text text-anchor="start" x="1179.5" y="-655.5" font-family="DejaVu Sans" font-size="10.00">expira_en</text>
<text text-anchor="start" x="1283.5" y="-656.1" font-family="DejaVu Sans" font-size="8.00" fill="#475569">TIMESTAMPTZ</text>
<text text-anchor="start" x="1179.5" y="-636.5" font-family="DejaVu Sans" font-size="10.00">revocada_en</text>
<text text-anchor="start" x="1283.5" y="-637.1" font-family="DejaVu Sans" font-size="8.00" fill="#475569">TIMESTAMPTZ</text>
<polygon fill="none" stroke="#0e7490" points="1148.5,-629 1148.5,-804 1348.5,-804 1348.5,-629 1148.5,-629"/>
</g>
<!-- usuarios&#45;&gt;sesiones -->
<g id="edge3" class="edge">
<title>usuarios&#45;&gt;sesiones</title>
<path fill="none" stroke="#475569" stroke-width="1.2" d="M826.24,-997.4C914.72,-961.48 1027.9,-909.14 1118.5,-846 1129.54,-838.3 1140.49,-829.63 1151.08,-820.52"/>
<polygon fill="#475569" stroke="#475569" stroke-width="1.2" points="819.74,-1005.42 816,-996.14 817.86,-995.4 821.6,-1004.67 819.74,-1005.42"/>
<polyline fill="none" stroke="#475569" stroke-width="1.2" points="816.95,-1001.15 821.58,-999.28 "/>
<polygon fill="#475569" stroke="#475569" stroke-width="1.2" points="824.38,-1003.55 820.64,-994.27 822.49,-993.52 826.24,-1002.8 824.38,-1003.55"/>
<polyline fill="none" stroke="#475569" stroke-width="1.2" points="821.58,-999.28 826.22,-997.41 "/>
<polygon fill="#475569" stroke="#475569" stroke-width="1.2" points="1157.3,-814.98 1167.76,-811.68 1161.04,-811.65 1164.77,-808.32 1164.77,-808.32 1164.77,-808.32 1161.04,-811.65 1161.78,-804.96 1157.3,-814.98 1157.3,-814.98"/>
<ellipse fill="none" stroke="#475569" stroke-width="1.2" cx="1154.32" cy="-817.64" rx="4" ry="4"/>
<text text-anchor="middle" x="1077" y="-881.8" font-family="DejaVu Sans" font-size="9.00" fill="#334155"> &#160;abre</text>
</g>
<!-- suscripciones -->
<g id="node7" class="node">
<title>suscripciones</title>
<polygon fill="#f9efef" stroke="transparent" points="167.5,-591 167.5,-842 407.5,-842 407.5,-591 167.5,-591"/>
<polygon fill="#b3261e" stroke="transparent" points="168.5,-819.5 168.5,-840.5 406.5,-840.5 406.5,-819.5 168.5,-819.5"/>
<text text-anchor="start" x="242" y="-827.9" font-family="DejaVu Sans" font-weight="bold" font-size="12.00" fill="white">suscripciones</text>
<text text-anchor="start" x="172.5" y="-808.8" font-family="DejaVu Sans" font-weight="bold" font-size="9.00" fill="#b91c1c">PK</text>
<text text-anchor="start" x="198.5" y="-807.5" font-family="DejaVu Sans" font-size="10.00">id_suscripcion</text>
<text text-anchor="start" x="321.5" y="-808.1" font-family="DejaVu Sans" font-size="8.00" fill="#475569">UUID</text>
<text text-anchor="start" x="172.5" y="-789.8" font-family="DejaVu Sans" font-weight="bold" font-size="9.00" fill="#1d4ed8">FK</text>
<text text-anchor="start" x="198.5" y="-788.5" font-family="DejaVu Sans" font-size="10.00">id_usuario</text>
<text text-anchor="start" x="321.5" y="-789.1" font-family="DejaVu Sans" font-size="8.00" fill="#475569">UUID</text>
<text text-anchor="start" x="172.5" y="-770.8" font-family="DejaVu Sans" font-weight="bold" font-size="9.00" fill="#1d4ed8">FK</text>
<text text-anchor="start" x="198.5" y="-769.5" font-family="DejaVu Sans" font-size="10.00">id_plan</text>
<text text-anchor="start" x="321.5" y="-770.1" font-family="DejaVu Sans" font-size="8.00" fill="#475569">UUID</text>
<text text-anchor="start" x="198.5" y="-750.5" font-family="DejaVu Sans" font-size="10.00">fecha_inicio</text>
<text text-anchor="start" x="321.5" y="-751.1" font-family="DejaVu Sans" font-size="8.00" fill="#475569">TIMESTAMPTZ</text>
<text text-anchor="start" x="198.5" y="-731.5" font-family="DejaVu Sans" font-size="10.00">fecha_fin</text>
<text text-anchor="start" x="321.5" y="-732.1" font-family="DejaVu Sans" font-size="8.00" fill="#475569">TIMESTAMPTZ</text>
<text text-anchor="start" x="198.5" y="-712.5" font-family="DejaVu Sans" font-size="10.00">estado</text>
<text text-anchor="start" x="321.5" y="-713.1" font-family="DejaVu Sans" font-size="8.00" fill="#475569">VARCHAR(20)</text>
<text text-anchor="start" x="198.5" y="-693.5" font-family="DejaVu Sans" font-size="10.00">periodicidad</text>
<text text-anchor="start" x="321.5" y="-694.1" font-family="DejaVu Sans" font-size="8.00" fill="#475569">VARCHAR(10)</text>
<text text-anchor="start" x="198.5" y="-674.5" font-family="DejaVu Sans" font-size="10.00">precio_contratado</text>
<text text-anchor="start" x="321.5" y="-675.1" font-family="DejaVu Sans" font-size="8.00" fill="#475569">NUMERIC(10,2) USD</text>
<text text-anchor="start" x="198.5" y="-655.5" font-family="DejaVu Sans" font-size="10.00">renovacion_automatica</text>
<text text-anchor="start" x="321.5" y="-656.1" font-family="DejaVu Sans" font-size="8.00" fill="#475569">BOOLEAN</text>
<text text-anchor="start" x="198.5" y="-636.5" font-family="DejaVu Sans" font-size="10.00">cancelada_en</text>
<text text-anchor="start" x="321.5" y="-637.1" font-family="DejaVu Sans" font-size="8.00" fill="#475569">TIMESTAMPTZ</text>
<text text-anchor="start" x="198.5" y="-617.5" font-family="DejaVu Sans" font-size="10.00">creado_en</text>
<text text-anchor="start" x="321.5" y="-618.1" font-family="DejaVu Sans" font-size="8.00" fill="#475569">TIMESTAMPTZ</text>
<text text-anchor="start" x="198.5" y="-598.5" font-family="DejaVu Sans" font-size="10.00">actualizado_en</text>
<text text-anchor="start" x="321.5" y="-599.1" font-family="DejaVu Sans" font-size="8.00" fill="#475569">TIMESTAMPTZ</text>
<polygon fill="none" stroke="#b3261e" points="167.5,-591 167.5,-842 407.5,-842 407.5,-591 167.5,-591"/>
</g>
<!-- usuarios&#45;&gt;suscripciones -->
<g id="edge4" class="edge">
<title>usuarios&#45;&gt;suscripciones</title>
<path fill="none" stroke="#475569" stroke-width="1.2" d="M537.67,-971.95C499.05,-947.77 458.58,-919.43 424.5,-889 414.42,-880 404.5,-870.2 394.9,-860"/>
<polygon fill="#475569" stroke="#475569" stroke-width="1.2" points="548.18,-972.58 542.91,-981.08 541.21,-980.03 546.49,-971.53 548.18,-972.58"/>
<polyline fill="none" stroke="#475569" stroke-width="1.2" points="546.4,-977.36 542.15,-974.72 "/>
<polygon fill="#475569" stroke="#475569" stroke-width="1.2" points="543.94,-969.95 538.66,-978.45 536.97,-977.39 542.24,-968.89 543.94,-969.95"/>
<polyline fill="none" stroke="#475569" stroke-width="1.2" points="542.15,-974.72 537.9,-972.09 "/>
<polygon fill="#475569" stroke="#475569" stroke-width="1.2" points="389.21,-853.77 385.79,-843.35 385.84,-850.08 382.47,-846.39 382.47,-846.39 382.47,-846.39 385.84,-850.08 379.14,-849.42 389.21,-853.77 389.21,-853.77"/>
<ellipse fill="none" stroke="#475569" stroke-width="1.2" cx="391.91" cy="-856.73" rx="4" ry="4"/>
<text text-anchor="middle" x="447" y="-881.8" font-family="DejaVu Sans" font-size="9.00" fill="#334155"> &#160;contrata</text>
</g>
<!-- carpetas -->
<g id="node9" class="node">
<title>carpetas</title>
<polygon fill="#eff5fd" stroke="transparent" points="580.5,-648 580.5,-785 782.5,-785 782.5,-648 580.5,-648"/>
<polygon fill="#1e73e8" stroke="transparent" points="581.5,-762.5 581.5,-783.5 781.5,-783.5 781.5,-762.5 581.5,-762.5"/>
<text text-anchor="start" x="620.5" y="-770.9" font-family="DejaVu Sans" font-weight="bold" font-size="12.00" fill="white">carpetas &#160;</text>
<text text-anchor="start" x="689.5" y="-770.9" font-family="DejaVu Sans" font-weight="bold" font-size="9.00" fill="white">· Avance 2</text>
<text text-anchor="start" x="585.5" y="-751.8" font-family="DejaVu Sans" font-weight="bold" font-size="9.00" fill="#b91c1c">PK</text>
<text text-anchor="start" x="611.5" y="-750.5" font-family="DejaVu Sans" font-size="10.00">id_carpeta</text>
<text text-anchor="start" x="704.5" y="-751.1" font-family="DejaVu Sans" font-size="8.00" fill="#475569">UUID</text>
<text text-anchor="start" x="585.5" y="-732.8" font-family="DejaVu Sans" font-weight="bold" font-size="9.00" fill="#1d4ed8">FK</text>
<text text-anchor="start" x="611.5" y="-731.5" font-family="DejaVu Sans" font-size="10.00">id_usuario</text>
<text text-anchor="start" x="704.5" y="-732.1" font-family="DejaVu Sans" font-size="8.00" fill="#475569">UUID</text>
<text text-anchor="start" x="585.5" y="-713.8" font-family="DejaVu Sans" font-weight="bold" font-size="9.00" fill="#1d4ed8">FK</text>
<text text-anchor="start" x="611.5" y="-712.5" font-family="DejaVu Sans" font-size="10.00">id_carpeta_padre</text>
<text text-anchor="start" x="704.5" y="-713.1" font-family="DejaVu Sans" font-size="8.00" fill="#475569">UUID (nulo = raíz)</text>
<text text-anchor="start" x="611.5" y="-693.5" font-family="DejaVu Sans" font-size="10.00">nombre</text>
<text text-anchor="start" x="704.5" y="-694.1" font-family="DejaVu Sans" font-size="8.00" fill="#475569">VARCHAR(120)</text>
<text text-anchor="start" x="611.5" y="-674.5" font-family="DejaVu Sans" font-size="10.00">creado_en</text>
<text text-anchor="start" x="704.5" y="-675.1" font-family="DejaVu Sans" font-size="8.00" fill="#475569">TIMESTAMPTZ</text>
<text text-anchor="start" x="611.5" y="-655.5" font-family="DejaVu Sans" font-size="10.00">actualizado_en</text>
<text text-anchor="start" x="704.5" y="-656.1" font-family="DejaVu Sans" font-size="8.00" fill="#475569">TIMESTAMPTZ</text>
<polygon fill="none" stroke="#1e73e8" stroke-dasharray="5,2" points="580.5,-648 580.5,-785 782.5,-785 782.5,-648 580.5,-648"/>
</g>
<!-- usuarios&#45;&gt;carpetas -->
<g id="edge8" class="edge">
<title>usuarios&#45;&gt;carpetas</title>
<path fill="none" stroke="#475569" stroke-width="1.2" d="M681.5,-911.67C681.5,-876.44 681.5,-839.51 681.5,-807.43"/>
<polygon fill="#475569" stroke="#475569" stroke-width="1.2" points="686.5,-920.75 676.5,-920.75 676.5,-918.75 686.5,-918.75 686.5,-920.75"/>
<polyline fill="none" stroke="#475569" stroke-width="1.2" points="681.5,-921.75 681.5,-916.75 "/>
<polygon fill="#475569" stroke="#475569" stroke-width="1.2" points="686.5,-915.75 676.5,-915.75 676.5,-913.75 686.5,-913.75 686.5,-915.75"/>
<polyline fill="none" stroke="#475569" stroke-width="1.2" points="681.5,-916.75 681.5,-911.75 "/>
<polygon fill="#475569" stroke="#475569" stroke-width="1.2" points="681.5,-799.15 686,-789.15 681.5,-794.15 681.5,-789.15 681.5,-789.15 681.5,-789.15 681.5,-794.15 677,-789.15 681.5,-799.15 681.5,-799.15"/>
<ellipse fill="none" stroke="#475569" stroke-width="1.2" cx="681.5" cy="-803.15" rx="4" ry="4"/>
<text text-anchor="middle" x="704" y="-881.8" font-family="DejaVu Sans" font-size="9.00" fill="#334155"> &#160;organiza</text>
</g>
<!-- archivos -->
<g id="node10" class="node">
<title>archivos</title>
<polygon fill="#edf7f3" stroke="transparent" points="540,-294 540,-507 737,-507 737,-294 540,-294"/>
<polygon fill="#0b8f55" stroke="transparent" points="541.5,-484.5 541.5,-505.5 736.5,-505.5 736.5,-484.5 541.5,-484.5"/>
<text text-anchor="start" x="579.5" y="-492.9" font-family="DejaVu Sans" font-weight="bold" font-size="12.00" fill="white">archivos &#160;</text>
<text text-anchor="start" x="645.5" y="-492.9" font-family="DejaVu Sans" font-weight="bold" font-size="9.00" fill="white">· Avance 2</text>
<text text-anchor="start" x="545.5" y="-473.8" font-family="DejaVu Sans" font-weight="bold" font-size="9.00" fill="#b91c1c">PK</text>
<text text-anchor="start" x="571.5" y="-472.5" font-family="DejaVu Sans" font-size="10.00">id_archivo</text>
<text text-anchor="start" x="659.5" y="-473.1" font-family="DejaVu Sans" font-size="8.00" fill="#475569">UUID</text>
<text text-anchor="start" x="545.5" y="-454.8" font-family="DejaVu Sans" font-weight="bold" font-size="9.00" fill="#1d4ed8">FK</text>
<text text-anchor="start" x="571.5" y="-453.5" font-family="DejaVu Sans" font-size="10.00">id_usuario</text>
<text text-anchor="start" x="659.5" y="-454.1" font-family="DejaVu Sans" font-size="8.00" fill="#475569">UUID</text>
<text text-anchor="start" x="545.5" y="-435.8" font-family="DejaVu Sans" font-weight="bold" font-size="9.00" fill="#1d4ed8">FK</text>
<text text-anchor="start" x="571.5" y="-434.5" font-family="DejaVu Sans" font-size="10.00">id_carpeta</text>
<text text-anchor="start" x="659.5" y="-435.1" font-family="DejaVu Sans" font-size="8.00" fill="#475569">UUID (nulo = raíz)</text>
<text text-anchor="start" x="571.5" y="-415.5" font-family="DejaVu Sans" font-size="10.00">nombre_original</text>
<text text-anchor="start" x="659.5" y="-416.1" font-family="DejaVu Sans" font-size="8.00" fill="#475569">VARCHAR(255)</text>
<text text-anchor="start" x="545.5" y="-397.8" font-family="DejaVu Sans" font-weight="bold" font-size="9.00" fill="#7c3aed">UQ</text>
<text text-anchor="start" x="571.5" y="-396.5" font-family="DejaVu Sans" font-size="10.00">clave_objeto</text>
<text text-anchor="start" x="659.5" y="-397.1" font-family="DejaVu Sans" font-size="8.00" fill="#475569">VARCHAR(255)</text>
<text text-anchor="start" x="571.5" y="-377.5" font-family="DejaVu Sans" font-size="10.00">tipo_mime</text>
<text text-anchor="start" x="659.5" y="-378.1" font-family="DejaVu Sans" font-size="8.00" fill="#475569">VARCHAR(100)</text>
<text text-anchor="start" x="571.5" y="-358.5" font-family="DejaVu Sans" font-size="10.00">tamano_bytes</text>
<text text-anchor="start" x="659.5" y="-359.1" font-family="DejaVu Sans" font-size="8.00" fill="#475569">BIGINT</text>
<text text-anchor="start" x="571.5" y="-339.5" font-family="DejaVu Sans" font-size="10.00">creado_en</text>
<text text-anchor="start" x="659.5" y="-340.1" font-family="DejaVu Sans" font-size="8.00" fill="#475569">TIMESTAMPTZ</text>
<text text-anchor="start" x="571.5" y="-320.5" font-family="DejaVu Sans" font-size="10.00">actualizado_en</text>
<text text-anchor="start" x="659.5" y="-321.1" font-family="DejaVu Sans" font-size="8.00" fill="#475569">TIMESTAMPTZ</text>
<text text-anchor="start" x="571.5" y="-301.5" font-family="DejaVu Sans" font-size="10.00">eliminado_en</text>
<text text-anchor="start" x="659.5" y="-302.1" font-family="DejaVu Sans" font-size="8.00" fill="#475569">TIMESTAMPTZ</text>
<polygon fill="none" stroke="#0b8f55" stroke-dasharray="5,2" points="540,-294 540,-507 737,-507 737,-294 540,-294"/>
</g>
<!-- usuarios&#45;&gt;archivos -->
<g id="edge9" class="edge">
<title>usuarios&#45;&gt;archivos</title>
<path fill="none" stroke="#475569" stroke-width="1.2" d="M556.95,-913.4C543.29,-892.07 531.46,-869.33 523.5,-846 486.32,-737.06 491.97,-697.71 523.5,-587 529.3,-566.64 538.04,-546.34 548.17,-527.03"/>
<polygon fill="#475569" stroke="#475569" stroke-width="1.2" points="566.11,-918.23 557.76,-923.73 556.66,-922.06 565.02,-916.56 566.11,-918.23"/>
<polyline fill="none" stroke="#475569" stroke-width="1.2" points="562.49,-921.82 559.74,-917.64 "/>
<polygon fill="#475569" stroke="#475569" stroke-width="1.2" points="563.37,-914.05 555.01,-919.55 553.91,-917.88 562.27,-912.38 563.37,-914.05"/>
<polyline fill="none" stroke="#475569" stroke-width="1.2" points="559.74,-917.64 556.99,-913.46 "/>
<polygon fill="#475569" stroke="#475569" stroke-width="1.2" points="552.14,-519.83 560.91,-513.24 554.55,-515.45 556.97,-511.07 556.97,-511.07 556.97,-511.07 554.55,-515.45 553.02,-508.9 552.14,-519.83 552.14,-519.83"/>
<ellipse fill="none" stroke="#475569" stroke-width="1.2" cx="550.21" cy="-523.33" rx="4" ry="4"/>
<text text-anchor="middle" x="537.5" y="-714.3" font-family="DejaVu Sans" font-size="9.00" fill="#334155"> &#160;sube</text>
</g>
<!-- planes -->
<g id="node5" class="node">
<title>planes</title>
<polygon fill="#f9f2ed" stroke="transparent" points="80.5,-1261 80.5,-1550 308.5,-1550 308.5,-1261 80.5,-1261"/>
<polygon fill="#b7470b" stroke="transparent" points="81.5,-1527.5 81.5,-1548.5 307.5,-1548.5 307.5,-1527.5 81.5,-1527.5"/>
<text text-anchor="start" x="172" y="-1535.9" font-family="DejaVu Sans" font-weight="bold" font-size="12.00" fill="white">planes</text>
<text text-anchor="start" x="85.5" y="-1516.8" font-family="DejaVu Sans" font-weight="bold" font-size="9.00" fill="#b91c1c">PK</text>
<text text-anchor="start" x="111.5" y="-1515.5" font-family="DejaVu Sans" font-size="10.00">id_plan</text>
<text text-anchor="start" x="222.5" y="-1516.1" font-family="DejaVu Sans" font-size="8.00" fill="#475569">UUID</text>
<text text-anchor="start" x="85.5" y="-1497.8" font-family="DejaVu Sans" font-weight="bold" font-size="9.00" fill="#7c3aed">UQ</text>
<text text-anchor="start" x="111.5" y="-1496.5" font-family="DejaVu Sans" font-size="10.00">codigo</text>
<text text-anchor="start" x="222.5" y="-1497.1" font-family="DejaVu Sans" font-size="8.00" fill="#475569">VARCHAR(40)</text>
<text text-anchor="start" x="111.5" y="-1477.5" font-family="DejaVu Sans" font-size="10.00">nombre</text>
<text text-anchor="start" x="222.5" y="-1478.1" font-family="DejaVu Sans" font-size="8.00" fill="#475569">VARCHAR(60)</text>
<text text-anchor="start" x="111.5" y="-1458.5" font-family="DejaVu Sans" font-size="10.00">descripcion</text>
<text text-anchor="start" x="222.5" y="-1459.1" font-family="DejaVu Sans" font-size="8.00" fill="#475569">VARCHAR(300)</text>
<text text-anchor="start" x="111.5" y="-1439.5" font-family="DejaVu Sans" font-size="10.00">precio_mensual</text>
<text text-anchor="start" x="222.5" y="-1440.1" font-family="DejaVu Sans" font-size="8.00" fill="#475569">NUMERIC(10,2) USD</text>
<text text-anchor="start" x="111.5" y="-1420.5" font-family="DejaVu Sans" font-size="10.00">descuento_anual_pct</text>
<text text-anchor="start" x="222.5" y="-1421.1" font-family="DejaVu Sans" font-size="8.00" fill="#475569">SMALLINT</text>
<text text-anchor="start" x="111.5" y="-1401.5" font-family="DejaVu Sans" font-size="10.00">almacenamiento_gb</text>
<text text-anchor="start" x="222.5" y="-1402.1" font-family="DejaVu Sans" font-size="8.00" fill="#475569">INT</text>
<text text-anchor="start" x="111.5" y="-1382.5" font-family="DejaVu Sans" font-size="10.00">vigencia_dias</text>
<text text-anchor="start" x="222.5" y="-1383.1" font-family="DejaVu Sans" font-size="8.00" fill="#475569">INT</text>
<text text-anchor="start" x="111.5" y="-1363.5" font-family="DejaVu Sans" font-size="10.00">destacado</text>
<text text-anchor="start" x="222.5" y="-1364.1" font-family="DejaVu Sans" font-size="8.00" fill="#475569">BOOLEAN</text>
<text text-anchor="start" x="111.5" y="-1344.5" font-family="DejaVu Sans" font-size="10.00">orden</text>
<text text-anchor="start" x="222.5" y="-1345.1" font-family="DejaVu Sans" font-size="8.00" fill="#475569">SMALLINT</text>
<text text-anchor="start" x="111.5" y="-1325.5" font-family="DejaVu Sans" font-size="10.00">color</text>
<text text-anchor="start" x="222.5" y="-1326.1" font-family="DejaVu Sans" font-size="8.00" fill="#475569">VARCHAR(7)</text>
<text text-anchor="start" x="111.5" y="-1306.5" font-family="DejaVu Sans" font-size="10.00">activo</text>
<text text-anchor="start" x="222.5" y="-1307.1" font-family="DejaVu Sans" font-size="8.00" fill="#475569">BOOLEAN</text>
<text text-anchor="start" x="111.5" y="-1287.5" font-family="DejaVu Sans" font-size="10.00">creado_en</text>
<text text-anchor="start" x="222.5" y="-1288.1" font-family="DejaVu Sans" font-size="8.00" fill="#475569">TIMESTAMPTZ</text>
<text text-anchor="start" x="111.5" y="-1268.5" font-family="DejaVu Sans" font-size="10.00">actualizado_en</text>
<text text-anchor="start" x="222.5" y="-1269.1" font-family="DejaVu Sans" font-size="8.00" fill="#475569">TIMESTAMPTZ</text>
<polygon fill="none" stroke="#b7470b" points="80.5,-1261 80.5,-1550 308.5,-1550 308.5,-1261 80.5,-1261"/>
</g>
<!-- plan_caracteristicas -->
<g id="node6" class="node">
<title>plan_caracteristicas</title>
<polygon fill="#f8f4ed" stroke="transparent" points="8,-1002 8,-1101 193,-1101 193,-1002 8,-1002"/>
<polygon fill="#a16207" stroke="transparent" points="9.5,-1078.5 9.5,-1099.5 192.5,-1099.5 192.5,-1078.5 9.5,-1078.5"/>
<text text-anchor="start" x="33.5" y="-1086.9" font-family="DejaVu Sans" font-weight="bold" font-size="12.00" fill="white">plan_caracteristicas</text>
<text text-anchor="start" x="13.5" y="-1067.8" font-family="DejaVu Sans" font-weight="bold" font-size="9.00" fill="#b91c1c">PK</text>
<text text-anchor="start" x="39.5" y="-1066.5" font-family="DejaVu Sans" font-size="10.00">id_caracteristica</text>
<text text-anchor="start" x="128.5" y="-1067.1" font-family="DejaVu Sans" font-size="8.00" fill="#475569">UUID</text>
<text text-anchor="start" x="13.5" y="-1048.8" font-family="DejaVu Sans" font-weight="bold" font-size="9.00" fill="#1d4ed8">FK</text>
<text text-anchor="start" x="39.5" y="-1047.5" font-family="DejaVu Sans" font-size="10.00">id_plan</text>
<text text-anchor="start" x="128.5" y="-1048.1" font-family="DejaVu Sans" font-size="8.00" fill="#475569">UUID</text>
<text text-anchor="start" x="39.5" y="-1028.5" font-family="DejaVu Sans" font-size="10.00">descripcion</text>
<text text-anchor="start" x="128.5" y="-1029.1" font-family="DejaVu Sans" font-size="8.00" fill="#475569">VARCHAR(120)</text>
<text text-anchor="start" x="39.5" y="-1009.5" font-family="DejaVu Sans" font-size="10.00">orden</text>
<text text-anchor="start" x="128.5" y="-1010.1" font-family="DejaVu Sans" font-size="8.00" fill="#475569">SMALLINT</text>
<polygon fill="none" stroke="#a16207" points="8,-1002 8,-1101 193,-1101 193,-1002 8,-1002"/>
</g>
<!-- planes&#45;&gt;plan_caracteristicas -->
<g id="edge6" class="edge">
<title>planes&#45;&gt;plan_caracteristicas</title>
<path fill="none" stroke="#475569" stroke-width="1.2" d="M152.42,-1246.94C140.85,-1203.6 128.88,-1158.76 119.35,-1123.07"/>
<polygon fill="#475569" stroke="#475569" stroke-width="1.2" points="159.62,-1254.49 149.96,-1257.07 149.44,-1255.14 159.1,-1252.56 159.62,-1254.49"/>
<polyline fill="none" stroke="#475569" stroke-width="1.2" points="155.04,-1256.75 153.75,-1251.92 "/>
<polygon fill="#475569" stroke="#475569" stroke-width="1.2" points="158.33,-1249.66 148.67,-1252.24 148.15,-1250.31 157.81,-1247.73 158.33,-1249.66"/>
<polyline fill="none" stroke="#475569" stroke-width="1.2" points="153.75,-1251.92 152.46,-1247.09 "/>
<polygon fill="#475569" stroke="#475569" stroke-width="1.2" points="117.18,-1114.96 118.95,-1104.14 115.89,-1110.13 114.6,-1105.3 114.6,-1105.3 114.6,-1105.3 115.89,-1110.13 110.25,-1106.46 117.18,-1114.96 117.18,-1114.96"/>
<ellipse fill="none" stroke="#475569" stroke-width="1.2" cx="118.21" cy="-1118.83" rx="4" ry="4"/>
<text text-anchor="middle" x="167.5" y="-1216.8" font-family="DejaVu Sans" font-size="9.00" fill="#334155"> &#160;muestra</text>
</g>
<!-- planes&#45;&gt;suscripciones -->
<g id="edge5" class="edge">
<title>planes&#45;&gt;suscripciones</title>
<path fill="none" stroke="#475569" stroke-width="1.2" d="M215.88,-1246.57C231.46,-1131.48 252.42,-976.68 267.63,-864.27"/>
<polygon fill="#475569" stroke="#475569" stroke-width="1.2" points="219.6,-1256.38 209.69,-1255.04 209.96,-1253.06 219.87,-1254.4 219.6,-1256.38"/>
<polyline fill="none" stroke="#475569" stroke-width="1.2" points="214.51,-1256.7 215.18,-1251.74 "/>
<polygon fill="#475569" stroke="#475569" stroke-width="1.2" points="220.27,-1251.42 210.36,-1250.08 210.63,-1248.1 220.54,-1249.44 220.27,-1251.42"/>
<polyline fill="none" stroke="#475569" stroke-width="1.2" points="215.18,-1251.74 215.85,-1246.79 "/>
<polygon fill="#475569" stroke="#475569" stroke-width="1.2" points="268.73,-856.17 274.53,-846.86 269.4,-851.21 270.07,-846.26 270.07,-846.26 270.07,-846.26 269.4,-851.21 265.61,-845.65 268.73,-856.17 268.73,-856.17"/>
<ellipse fill="none" stroke="#475569" stroke-width="1.2" cx="268.19" cy="-860.13" rx="4" ry="4"/>
<text text-anchor="middle" x="277" y="-1049.3" font-family="DejaVu Sans" font-size="9.00" fill="#334155"> &#160;define</text>
</g>
<!-- pagos -->
<g id="node8" class="node">
<title>pagos</title>
<polygon fill="#f3eff9" stroke="transparent" points="171,-313 171,-488 404,-488 404,-313 171,-313"/>
<polygon fill="#5b21b6" stroke="transparent" points="172.5,-465.5 172.5,-486.5 403.5,-486.5 403.5,-465.5 172.5,-465.5"/>
<text text-anchor="start" x="236.5" y="-473.9" font-family="DejaVu Sans" font-weight="bold" font-size="12.00" fill="white">pagos &#160;</text>
<text text-anchor="start" x="286.5" y="-473.9" font-family="DejaVu Sans" font-weight="bold" font-size="9.00" fill="white">· Avance 2</text>
<text text-anchor="start" x="176.5" y="-454.8" font-family="DejaVu Sans" font-weight="bold" font-size="9.00" fill="#b91c1c">PK</text>
<text text-anchor="start" x="202.5" y="-453.5" font-family="DejaVu Sans" font-size="10.00">id_pago</text>
<text text-anchor="start" x="318.5" y="-454.1" font-family="DejaVu Sans" font-size="8.00" fill="#475569">UUID</text>
<text text-anchor="start" x="176.5" y="-435.8" font-family="DejaVu Sans" font-weight="bold" font-size="9.00" fill="#1d4ed8">FK</text>
<text text-anchor="start" x="202.5" y="-434.5" font-family="DejaVu Sans" font-size="10.00">id_suscripcion</text>
<text text-anchor="start" x="318.5" y="-435.1" font-family="DejaVu Sans" font-size="8.00" fill="#475569">UUID</text>
<text text-anchor="start" x="176.5" y="-416.8" font-family="DejaVu Sans" font-weight="bold" font-size="9.00" fill="#7c3aed">UQ</text>
<text text-anchor="start" x="202.5" y="-415.5" font-family="DejaVu Sans" font-size="10.00">numero_comprobante</text>
<text text-anchor="start" x="318.5" y="-416.1" font-family="DejaVu Sans" font-size="8.00" fill="#475569">VARCHAR(30)</text>
<text text-anchor="start" x="202.5" y="-396.5" font-family="DejaVu Sans" font-size="10.00">tipo</text>
<text text-anchor="start" x="318.5" y="-397.1" font-family="DejaVu Sans" font-size="8.00" fill="#475569">VARCHAR(20)</text>
<text text-anchor="start" x="202.5" y="-377.5" font-family="DejaVu Sans" font-size="10.00">monto</text>
<text text-anchor="start" x="318.5" y="-378.1" font-family="DejaVu Sans" font-size="8.00" fill="#475569">NUMERIC(10,2) USD</text>
<text text-anchor="start" x="202.5" y="-358.5" font-family="DejaVu Sans" font-size="10.00">metodo_simulado</text>
<text text-anchor="start" x="318.5" y="-359.1" font-family="DejaVu Sans" font-size="8.00" fill="#475569">VARCHAR(40)</text>
<text text-anchor="start" x="202.5" y="-339.5" font-family="DejaVu Sans" font-size="10.00">estado</text>
<text text-anchor="start" x="318.5" y="-340.1" font-family="DejaVu Sans" font-size="8.00" fill="#475569">VARCHAR(15)</text>
<text text-anchor="start" x="202.5" y="-320.5" font-family="DejaVu Sans" font-size="10.00">fecha_pago</text>
<text text-anchor="start" x="318.5" y="-321.1" font-family="DejaVu Sans" font-size="8.00" fill="#475569">TIMESTAMPTZ</text>
<polygon fill="none" stroke="#5b21b6" stroke-dasharray="5,2" points="171,-313 171,-488 404,-488 404,-313 171,-313"/>
</g>
<!-- suscripciones&#45;&gt;pagos -->
<g id="edge7" class="edge">
<title>suscripciones&#45;&gt;pagos</title>
<path fill="none" stroke="#475569" stroke-width="1.2" d="M287.5,-576.81C287.5,-554.6 287.5,-531.88 287.5,-510.49"/>
<polygon fill="#475569" stroke="#475569" stroke-width="1.2" points="292.5,-585.88 282.5,-585.88 282.5,-583.88 292.5,-583.88 292.5,-585.88"/>
<polyline fill="none" stroke="#475569" stroke-width="1.2" points="287.5,-586.88 287.5,-581.88 "/>
<polygon fill="#475569" stroke="#475569" stroke-width="1.2" points="292.5,-580.88 282.5,-580.88 282.5,-578.88 292.5,-578.88 292.5,-580.88"/>
<polyline fill="none" stroke="#475569" stroke-width="1.2" points="287.5,-581.88 287.5,-576.88 "/>
<polygon fill="#475569" stroke="#475569" stroke-width="1.2" points="287.5,-502.47 292,-492.47 287.5,-497.47 287.5,-492.47 287.5,-492.47 287.5,-492.47 287.5,-497.47 283,-492.47 287.5,-502.47 287.5,-502.47"/>
<ellipse fill="none" stroke="#475569" stroke-width="1.2" cx="287.5" cy="-506.47" rx="4" ry="4"/>
<text text-anchor="middle" x="308" y="-546.8" font-family="DejaVu Sans" font-size="9.00" fill="#334155"> &#160;registra</text>
</g>
<!-- notas -->
<g id="node11" class="node">
<title>notas</title>
<polygon fill="#f8fafc" stroke="transparent" points="138,-4 138,-219 437,-219 437,-4 138,-4"/>
<text text-anchor="start" x="143.5" y="-203.3" font-family="DejaVu Sans" font-weight="bold" font-size="14.00">Reglas que no se ven en las líneas</text>
<text text-anchor="start" x="143.5" y="-182.5" font-family="DejaVu Sans" font-size="10.00">• Todos los montos están en dólares (USD)</text>
<text text-anchor="start" x="143.5" y="-163.5" font-family="DejaVu Sans" font-size="10.00">• Los pagos son simulados: no hay cobros reales ni</text>
<text text-anchor="start" x="143.5" y="-144.5" font-family="DejaVu Sans" font-size="10.00"> &#160;&#160;se guardan datos de tarjeta</text>
<text text-anchor="start" x="143.5" y="-125.5" font-family="DejaVu Sans" font-size="10.00">• Un usuario solo puede tener UNA suscripción activa</text>
<text text-anchor="start" x="143.5" y="-106.5" font-family="DejaVu Sans" font-size="10.00"> &#160;&#160;(índice único parcial WHERE estado = &#39;activa&#39;)</text>
<text text-anchor="start" x="143.5" y="-87.5" font-family="DejaVu Sans" font-size="10.00">• suscripciones.precio_contratado guarda lo que se pagó;</text>
<text text-anchor="start" x="143.5" y="-68.5" font-family="DejaVu Sans" font-size="10.00"> &#160;&#160;no cambia si el admin edita el precio del plan</text>
<text text-anchor="start" x="143.5" y="-49.5" font-family="DejaVu Sans" font-size="10.00">• UQ (id_usuario, id_carpeta_padre, nombre) en carpetas</text>
<text text-anchor="start" x="143.5" y="-30.5" font-family="DejaVu Sans" font-size="10.00">• Tokens y refresh tokens se guardan hasheados (SHA&#45;256)</text>
<text text-anchor="start" x="143.5" y="-11.5" font-family="DejaVu Sans" font-size="10.00">• CHECK en estados, precios ≥ 0, fecha_fin &gt; fecha_inicio</text>
<polygon fill="none" stroke="#94a3b8" points="138,-4 138,-219 437,-219 437,-4 138,-4"/>
</g>
<!-- pagos&#45;&gt;notas -->
<!-- carpetas&#45;&gt;carpetas -->
<g id="edge11" class="edge">
<title>carpetas:ne&#45;&gt;carpetas:se</title>
<path fill="none" stroke="#475569" stroke-width="1.2" d="M764.79,-797.61C808.72,-830.43 833.5,-822.95 833.5,-716.5 833.5,-613.41 810.26,-603.14 768.89,-632.41"/>
<polygon fill="#475569" stroke="#475569" stroke-width="1.2" points="752.19,-794.05 758.38,-786.19 759.95,-787.43 753.76,-795.28 752.19,-794.05"/>
<polyline fill="none" stroke="#475569" stroke-width="1.2" points="754.5,-789.5 758.43,-792.6 "/>
<ellipse fill="none" stroke="#475569" stroke-width="1.2" cx="761.57" cy="-795.07" rx="4" ry="4"/>
<polygon fill="#475569" stroke="#475569" stroke-width="1.2" points="762.42,-637.39 751.75,-639.94 758.46,-640.45 754.5,-643.5 754.5,-643.5 754.5,-643.5 758.46,-640.45 757.25,-647.06 762.42,-637.39 762.42,-637.39"/>
<ellipse fill="none" stroke="#475569" stroke-width="1.2" cx="765.59" cy="-634.95" rx="4" ry="4"/>
<text text-anchor="middle" x="869.5" y="-714.3" font-family="DejaVu Sans" font-size="9.00" fill="#334155"> &#160;subcarpeta de</text>
</g>
<!-- carpetas&#45;&gt;archivos -->
<g id="edge10" class="edge">
<title>carpetas&#45;&gt;archivos</title>
<path fill="none" stroke="#475569" stroke-width="1.2" d="M669.88,-630.62C665.6,-599.42 660.67,-563.36 655.99,-529.22"/>
<polygon fill="#475569" stroke="#475569" stroke-width="1.2" points="676.51,-642.19 666.6,-643.54 666.33,-641.56 676.24,-640.2 676.51,-642.19"/>
<polyline fill="none" stroke="#475569" stroke-width="1.2" points="671.69,-643.86 671.01,-638.9 "/>
<ellipse fill="none" stroke="#475569" stroke-width="1.2" cx="670.47" cy="-634.94" rx="4" ry="4"/>
<polygon fill="#475569" stroke="#475569" stroke-width="1.2" points="654.86,-520.94 657.96,-510.43 654.18,-515.99 653.5,-511.04 653.5,-511.04 653.5,-511.04 654.18,-515.99 649.04,-511.65 654.86,-520.94 654.86,-520.94"/>
<ellipse fill="none" stroke="#475569" stroke-width="1.2" cx="655.4" cy="-524.91" rx="4" ry="4"/>
<text text-anchor="middle" x="681.5" y="-546.8" font-family="DejaVu Sans" font-size="9.00" fill="#334155"> &#160;contiene</text>
</g>
<!-- leyenda -->
<g id="node12" class="node">
<title>leyenda</title>
<polygon fill="white" stroke="transparent" points="539,-30 539,-193 738,-193 738,-30 539,-30"/>
<text text-anchor="start" x="544.5" y="-177.3" font-family="DejaVu Sans" font-weight="bold" font-size="14.00">Leyenda</text>
<text text-anchor="start" x="544.5" y="-154.3" font-family="DejaVu Sans" font-weight="bold" font-size="14.00" fill="#b91c1c">PK</text>
<text text-anchor="start" x="585.5" y="-153.3" font-family="DejaVu Sans" font-size="14.00">Clave primaria</text>
<text text-anchor="start" x="544.5" y="-131.3" font-family="DejaVu Sans" font-weight="bold" font-size="14.00" fill="#1d4ed8">FK</text>
<text text-anchor="start" x="585.5" y="-130.3" font-family="DejaVu Sans" font-size="14.00">Clave foránea</text>
<text text-anchor="start" x="544.5" y="-108.3" font-family="DejaVu Sans" font-weight="bold" font-size="14.00" fill="#7c3aed">UQ</text>
<text text-anchor="start" x="585.5" y="-107.3" font-family="DejaVu Sans" font-size="14.00">Valor único</text>
<text text-anchor="start" x="544.5" y="-84.3" font-family="DejaVu Sans" font-size="14.00">─┼┼</text>
<text text-anchor="start" x="585.5" y="-84.3" font-family="DejaVu Sans" font-size="14.00">Uno (1)</text>
<text text-anchor="start" x="544.5" y="-61.3" font-family="DejaVu Sans" font-size="14.00">─○┼</text>
<text text-anchor="start" x="585.5" y="-61.3" font-family="DejaVu Sans" font-size="14.00">Cero o uno (0..1)</text>
<text text-anchor="start" x="544.5" y="-38.3" font-family="DejaVu Sans" font-size="14.00">─○&lt;</text>
<text text-anchor="start" x="585.5" y="-38.3" font-family="DejaVu Sans" font-size="14.00">Cero o muchos (0..N)</text>
<polygon fill="none" stroke="#94a3b8" points="539,-30 539,-193 738,-193 738,-30 539,-30"/>
</g>
<!-- archivos&#45;&gt;leyenda -->
</g>
</svg>
